<?xml version="1.0" encoding="UTF-8"?>
<!DOCTYPE svg
PUBLIC "-//W3C//DTD SVG 1.1//EN"
       "http://www.w3.org/Graphics/SVG/1.1/DTD/svg11.dtd">
<svg viewBox="91 6 897 713" width="806px" height="707px" xmlns="http://www.w3.org/2000/svg" version="1.1">
   <line x1="437" y1="91" x2="427" y2="91" style="stroke:#c00;stroke-width:1;"/>
   <line x1="270" y1="102" x2="260" y2="102" style="stroke:#c00;stroke-width:1;"/>
   <line x1="427" y1="91" x2="270" y2="102" style="stroke:#c00;stroke-width:1;"/>
   <line x1="429.5" y1="91" x2="433.03553390593" y2="94.535533905933" style="stroke:#c00;stroke-width:2;"/>
   <line x1="429.5" y1="91" x2="433.03553390593" y2="87.464466094067" style="stroke:#c00;stroke-width:2;"/>
   <line x1="265" y1="102" x2="268.53553390593" y2="105.53553390593" style="stroke:#c00;stroke-width:2;"/>
   <line x1="265" y1="102" x2="268.53553390593" y2="98.464466094067" style="stroke:#c00;stroke-width:2;"/>
   <line x1="686" y1="435" x2="676" y2="435" style="stroke:#cb0;stroke-width:1;"/>
   <line x1="567" y1="393" x2="557" y2="393" style="stroke:#cb0;stroke-width:1;"/>
   <line x1="676" y1="435" x2="567" y2="393" style="stroke:#cb0;stroke-width:1;"/>
   <line x1="678.5" y1="435" x2="682.03553390593" y2="438.53553390593" style="stroke:#cb0;stroke-width:2;"/>
   <line x1="678.5" y1="435" x2="682.03553390593" y2="431.46446609407" style="stroke:#cb0;stroke-width:2;"/>
   <line x1="562" y1="393" x2="565.53553390593" y2="396.53553390593" style="stroke:#cb0;stroke-width:2;"/>
   <line x1="562" y1="393" x2="565.53553390593" y2="389.46446609407" style="stroke:#cb0;stroke-width:2;"/>
   <line x1="685" y1="688" x2="675" y2="688" style="stroke:#b0b;stroke-width:1;"/>
   <line x1="567" y1="393" x2="557" y2="393" style="stroke:#b0b;stroke-width:1;"/>
   <line x1="675" y1="688" x2="567" y2="393" style="stroke:#b0b;stroke-width:1;"/>
   <line x1="677.5" y1="688" x2="681.03553390593" y2="691.53553390593" style="stroke:#b0b;stroke-width:2;"/>
   <line x1="677.5" y1="688" x2="681.03553390593" y2="684.46446609407" style="stroke:#b0b;stroke-width:2;"/>
   <line x1="562" y1="393" x2="565.53553390593" y2="396.53553390593" style="stroke:#b0b;stroke-width:2;"/>
   <line x1="562" y1="393" x2="565.53553390593" y2="389.46446609407" style="stroke:#b0b;stroke-width:2;"/>
   <line x1="436" y1="513" x2="426" y2="513" style="stroke:#0b0;stroke-width:1;"/>
   <line x1="269" y1="528" x2="259" y2="528" style="stroke:#0b0;stroke-width:1;"/>
   <line x1="426" y1="513" x2="269" y2="528" style="stroke:#0b0;stroke-width:1;"/>
   <line x1="428.5" y1="513" x2="432.03553390593" y2="516.53553390593" style="stroke:#0b0;stroke-width:2;"/>
   <line x1="428.5" y1="513" x2="432.03553390593" y2="509.46446609407" style="stroke:#0b0;stroke-width:2;"/>
   <line x1="264" y1="528" x2="267.53553390593" y2="531.53553390593" style="stroke:#0b0;stroke-width:2;"/>
   <line x1="264" y1="528" x2="267.53553390593" y2="524.46446609407" style="stroke:#0b0;stroke-width:2;"/>
   <line x1="436" y1="533" x2="426" y2="533" style="stroke:#cb0;stroke-width:1;"/>
   <line x1="270" y1="102" x2="260" y2="102" style="stroke:#cb0;stroke-width:1;"/>
   <line x1="426" y1="533" x2="270" y2="102" style="stroke:#cb0;stroke-width:1;"/>
   <line x1="428.5" y1="533" x2="432.03553390593" y2="536.53553390593" style="stroke:#cb0;stroke-width:2;"/>
   <line x1="428.5" y1="533" x2="432.03553390593" y2="529.46446609407" style="stroke:#cb0;stroke-width:2;"/>
   <line x1="265" y1="102" x2="268.53553390593" y2="105.53553390593" style="stroke:#cb0;stroke-width:2;"/>
   <line x1="265" y1="102" x2="268.53553390593" y2="98.464466094067" style="stroke:#cb0;stroke-width:2;"/>
   <line x1="699" y1="561" x2="689" y2="561" style="stroke:#cb0;stroke-width:1;"/>
   <line x1="567" y1="393" x2="557" y2="393" style="stroke:#cb0;stroke-width:1;"/>
   <line x1="689" y1="561" x2="567" y2="393" style="stroke:#cb0;stroke-width:1;"/>
   <line x1="691.5" y1="561" x2="695.03553390593" y2="564.53553390593" style="stroke:#cb0;stroke-width:2;"/>
   <line x1="691.5" y1="561" x2="695.03553390593" y2="557.46446609407" style="stroke:#cb0;stroke-width:2;"/>
   <line x1="562" y1="393" x2="565.53553390593" y2="396.53553390593" style="stroke:#cb0;stroke-width:2;"/>
   <line x1="562" y1="393" x2="565.53553390593" y2="389.46446609407" style="stroke:#cb0;stroke-width:2;"/>
   <line x1="675" y1="262" x2="665" y2="262" style="stroke:#0b0;stroke-width:1;"/>
   <line x1="270" y1="102" x2="260" y2="102" style="stroke:#0b0;stroke-width:1;"/>
   <line x1="665" y1="262" x2="270" y2="102" style="stroke:#0b0;stroke-width:1;"/>
   <line x1="667.5" y1="262" x2="671.03553390593" y2="265.53553390593" style="stroke:#0b0;stroke-width:2;"/>
   <line x1="667.5" y1="262" x2="671.03553390593" y2="258.46446609407" style="stroke:#0b0;stroke-width:2;"/>
   <line x1="265" y1="102" x2="268.53553390593" y2="105.53553390593" style="stroke:#0b0;stroke-width:2;"/>
   <line x1="265" y1="102" x2="268.53553390593" y2="98.464466094067" style="stroke:#0b0;stroke-width:2;"/>
   <rect width="132" height="20" x="437" y="21" style="fill:#007;stroke:black;"/>
   <text width="132" height="20" x="442" y="35" style="fill:#fff;" font-family="Arial" font-size="16px"> catalog</text>
   <rect width="132" height="20" x="437" y="41" style="fill:#aea;stroke:black;"/>
   <text width="132" height="20" x="442" y="55" style="fill:black;" font-family="Arial" font-size="16px">id_catalog</text>
   <rect width="132" height="20" x="437" y="61" style="fill:none;stroke:black;"/>
   <text width="132" height="20" x="442" y="75" style="fill:black;" font-family="Arial" font-size="16px">tattoo_catalog_url</text>
   <rect width="132" height="20" x="437" y="81" style="fill:none;stroke:black;"/>
   <text width="132" height="20" x="442" y="95" style="fill:black;" font-family="Arial" font-size="16px">FK_id_tattoo_shop</text>
   <rect width="165" height="20" x="686" y="365" style="fill:#007;stroke:black;"/>
   <text width="165" height="20" x="691" y="379" style="fill:#fff;" font-family="Arial" font-size="16px"> client</text>
   <rect width="165" height="20" x="686" y="385" style="fill:#aea;stroke:black;"/>
   <text width="165" height="20" x="691" y="399" style="fill:black;" font-family="Arial" font-size="16px">id_client</text>
   <rect width="165" height="20" x="686" y="405" style="fill:none;stroke:black;"/>
   <text width="165" height="20" x="691" y="419" style="fill:black;" font-family="Arial" font-size="16px">internal_number_client</text>
   <rect width="165" height="20" x="686" y="425" style="fill:none;stroke:black;"/>
   <text width="165" height="20" x="691" y="439" style="fill:black;" font-family="Arial" font-size="16px">FK_id_person</text>
   <rect width="197" height="20" x="685" y="618" style="fill:#007;stroke:black;"/>
   <text width="197" height="20" x="690" y="632" style="fill:#fff;" font-family="Arial" font-size="16px"> employee</text>
   <rect width="197" height="20" x="685" y="638" style="fill:#aea;stroke:black;"/>
   <text width="197" height="20" x="690" y="652" style="fill:black;" font-family="Arial" font-size="16px">id_employee</text>
   <rect width="197" height="20" x="685" y="658" style="fill:none;stroke:black;"/>
   <text width="197" height="20" x="690" y="672" style="fill:black;" font-family="Arial" font-size="16px">internal_number_employee</text>
   <rect width="197" height="20" x="685" y="678" style="fill:none;stroke:black;"/>
   <text width="197" height="20" x="690" y="692" style="fill:black;" font-family="Arial" font-size="16px">FK_id_person</text>
   <rect width="121" height="20" x="436" y="363" style="fill:#007;stroke:black;"/>
   <text width="121" height="20" x="441" y="377" style="fill:#fff;" font-family="Arial" font-size="16px"> person</text>
   <rect width="121" height="20" x="436" y="383" style="fill:#aea;stroke:black;"/>
   <text width="121" height="20" x="441" y="397" style="fill:black;" font-family="Arial" font-size="16px">id_person</text>
   <rect width="121" height="20" x="436" y="403" style="fill:none;stroke:black;"/>
   <text width="121" height="20" x="441" y="417" style="fill:black;" font-family="Arial" font-size="16px">name_person</text>
   <rect width="121" height="20" x="436" y="423" style="fill:none;stroke:black;"/>
   <text width="121" height="20" x="441" y="437" style="fill:black;" font-family="Arial" font-size="16px">address_person</text>
   <rect width="121" height="20" x="436" y="443" style="fill:none;stroke:black;"/>
   <text width="121" height="20" x="441" y="457" style="fill:black;" font-family="Arial" font-size="16px">phone</text>
   <rect width="121" height="20" x="436" y="463" style="fill:none;stroke:black;"/>
   <text width="121" height="20" x="441" y="477" style="fill:black;" font-family="Arial" font-size="16px">e_mail</text>
   <rect width="121" height="20" x="436" y="483" style="fill:none;stroke:black;"/>
   <text width="121" height="20" x="441" y="497" style="fill:black;" font-family="Arial" font-size="16px">indentification</text>
   <rect width="121" height="20" x="436" y="503" style="fill:none;stroke:black;"/>
   <text width="121" height="20" x="441" y="517" style="fill:black;" font-family="Arial" font-size="16px">FK_person_type</text>
   <rect width="121" height="20" x="436" y="523" style="fill:none;stroke:black;"/>
   <text width="121" height="20" x="441" y="537" style="fill:black;" font-family="Arial" font-size="16px">FK_tattoo_shop</text>
   <rect width="153" height="20" x="106" y="498" style="fill:#007;stroke:black;"/>
   <text width="153" height="20" x="111" y="512" style="fill:#fff;" font-family="Arial" font-size="16px"> person_type</text>
   <rect width="153" height="20" x="106" y="518" style="fill:#aea;stroke:black;"/>
   <text width="153" height="20" x="111" y="532" style="fill:black;" font-family="Arial" font-size="16px">id_person_type</text>
   <rect width="153" height="20" x="106" y="538" style="fill:none;stroke:black;"/>
   <text width="153" height="20" x="111" y="552" style="fill:black;" font-family="Arial" font-size="16px">person_type</text>
   <rect width="153" height="20" x="106" y="558" style="fill:none;stroke:black;"/>
   <text width="153" height="20" x="111" y="572" style="fill:black;" font-family="Arial" font-size="16px">amount_person_type</text>
   <rect width="101" height="20" x="699" y="471" style="fill:#007;stroke:black;"/>
   <text width="101" height="20" x="704" y="485" style="fill:#fff;" font-family="Arial" font-size="16px"> provider</text>
   <rect width="101" height="20" x="699" y="491" style="fill:#aea;stroke:black;"/>
   <text width="101" height="20" x="704" y="505" style="fill:black;" font-family="Arial" font-size="16px">id_provider</text>
   <rect width="101" height="20" x="699" y="511" style="fill:none;stroke:black;"/>
   <text width="101" height="20" x="704" y="525" style="fill:black;" font-family="Arial" font-size="16px">nit</text>
   <rect width="101" height="20" x="699" y="531" style="fill:none;stroke:black;"/>
   <text width="101" height="20" x="704" y="545" style="fill:black;" font-family="Arial" font-size="16px">url</text>
   <rect width="101" height="20" x="699" y="551" style="fill:none;stroke:black;"/>
   <text width="101" height="20" x="704" y="565" style="fill:black;" font-family="Arial" font-size="16px">FK_id_person</text>
   <rect width="107" height="20" x="153" y="72" style="fill:#007;stroke:black;"/>
   <text width="107" height="20" x="158" y="86" style="fill:#fff;" font-family="Arial" font-size="16px"> tattoo_shops</text>
   <rect width="107" height="20" x="153" y="92" style="fill:#aea;stroke:black;"/>
   <text width="107" height="20" x="158" y="106" style="fill:black;" font-family="Arial" font-size="16px">id_tattoo_shop</text>
   <rect width="107" height="20" x="153" y="112" style="fill:none;stroke:black;"/>
   <text width="107" height="20" x="158" y="126" style="fill:black;" font-family="Arial" font-size="16px">name</text>
   <rect width="107" height="20" x="153" y="132" style="fill:none;stroke:black;"/>
   <text width="107" height="20" x="158" y="146" style="fill:black;" font-family="Arial" font-size="16px">address</text>
   <rect width="107" height="20" x="153" y="152" style="fill:none;stroke:black;"/>
   <text width="107" height="20" x="158" y="166" style="fill:black;" font-family="Arial" font-size="16px">city</text>
   <rect width="107" height="20" x="153" y="172" style="fill:none;stroke:black;"/>
   <text width="107" height="20" x="158" y="186" style="fill:black;" font-family="Arial" font-size="16px">department</text>
   <rect width="107" height="20" x="153" y="192" style="fill:none;stroke:black;"/>
   <text width="107" height="20" x="158" y="206" style="fill:black;" font-family="Arial" font-size="16px">phone</text>
   <rect width="107" height="20" x="153" y="212" style="fill:none;stroke:black;"/>
   <text width="107" height="20" x="158" y="226" style="fill:black;" font-family="Arial" font-size="16px">actual_state</text>
   <rect width="132" height="20" x="675" y="72" style="fill:#007;stroke:black;"/>
   <text width="132" height="20" x="680" y="86" style="fill:#fff;" font-family="Arial" font-size="16px"> time_table</text>
   <rect width="132" height="20" x="675" y="92" style="fill:#aea;stroke:black;"/>
   <text width="132" height="20" x="680" y="106" style="fill:black;" font-family="Arial" font-size="16px">id_time_table</text>
   <rect width="132" height="20" x="675" y="112" style="fill:none;stroke:black;"/>
   <text width="132" height="20" x="680" y="126" style="fill:black;" font-family="Arial" font-size="16px">Monday</text>
   <rect width="132" height="20" x="675" y="132" style="fill:none;stroke:black;"/>
   <text width="132" height="20" x="680" y="146" style="fill:black;" font-family="Arial" font-size="16px">Tuesday</text>
   <rect width="132" height="20" x="675" y="152" style="fill:none;stroke:black;"/>
   <text width="132" height="20" x="680" y="166" style="fill:black;" font-family="Arial" font-size="16px">Wednesday</text>
   <rect width="132" height="20" x="675" y="172" style="fill:none;stroke:black;"/>
   <text width="132" height="20" x="680" y="186" style="fill:black;" font-family="Arial" font-size="16px">Thursday</text>
   <rect width="132" height="20" x="675" y="192" style="fill:none;stroke:black;"/>
   <text width="132" height="20" x="680" y="206" style="fill:black;" font-family="Arial" font-size="16px">Friday</text>
   <rect width="132" height="20" x="675" y="212" style="fill:none;stroke:black;"/>
   <text width="132" height="20" x="680" y="226" style="fill:black;" font-family="Arial" font-size="16px">Saturday</text>
   <rect width="132" height="20" x="675" y="232" style="fill:none;stroke:black;"/>
   <text width="132" height="20" x="680" y="246" style="fill:black;" font-family="Arial" font-size="16px">Sunday</text>
   <rect width="132" height="20" x="675" y="252" style="fill:none;stroke:black;"/>
   <text width="132" height="20" x="680" y="266" style="fill:black;" font-family="Arial" font-size="16px">FK_id_tattoo_shop</text>
</svg>
