<?xml version="1.0" encoding="UTF-8"?>
<!DOCTYPE svg
PUBLIC "-//W3C//DTD SVG 1.1//EN"
       "http://www.w3.org/Graphics/SVG/1.1/DTD/svg11.dtd">
<svg viewBox="109 80 1726 665" width="1617px" height="585px" xmlns="http://www.w3.org/2000/svg" version="1.1">
   <line x1="1240" y1="497" x2="1230" y2="497" style="stroke:#bbb;stroke-width:1;"/>
   <line x1="1200" y1="355" x2="1190" y2="355" style="stroke:#bbb;stroke-width:1;"/>
   <line x1="1230" y1="497" x2="1200" y2="355" style="stroke:#bbb;stroke-width:1;"/>
   <line x1="1232.5" y1="497" x2="1236.0355339059" y2="500.53553390593" style="stroke:#bbb;stroke-width:2;"/>
   <line x1="1232.5" y1="497" x2="1236.0355339059" y2="493.46446609407" style="stroke:#bbb;stroke-width:2;"/>
   <line x1="1195" y1="355" x2="1198.5355339059" y2="358.53553390593" style="stroke:#bbb;stroke-width:2;"/>
   <line x1="1195" y1="355" x2="1198.5355339059" y2="351.46446609407" style="stroke:#bbb;stroke-width:2;"/>
   <line x1="428" y1="414" x2="418" y2="414" style="stroke:#bbb;stroke-width:1;"/>
   <line x1="334" y1="202" x2="324" y2="202" style="stroke:#bbb;stroke-width:1;"/>
   <line x1="418" y1="414" x2="334" y2="202" style="stroke:#bbb;stroke-width:1;"/>
   <line x1="420.5" y1="414" x2="424.03553390593" y2="417.53553390593" style="stroke:#bbb;stroke-width:2;"/>
   <line x1="420.5" y1="414" x2="424.03553390593" y2="410.46446609407" style="stroke:#bbb;stroke-width:2;"/>
   <line x1="329" y1="202" x2="332.53553390593" y2="205.53553390593" style="stroke:#bbb;stroke-width:2;"/>
   <line x1="329" y1="202" x2="332.53553390593" y2="198.46446609407" style="stroke:#bbb;stroke-width:2;"/>
   <line x1="1489" y1="620" x2="1479" y2="620" style="stroke:#0bf;stroke-width:1;"/>
   <line x1="1426" y1="437" x2="1416" y2="437" style="stroke:#0bf;stroke-width:1;"/>
   <line x1="1479" y1="620" x2="1426" y2="437" style="stroke:#0bf;stroke-width:1;"/>
   <line x1="1481.5" y1="620" x2="1485.0355339059" y2="623.53553390593" style="stroke:#0bf;stroke-width:2;"/>
   <line x1="1481.5" y1="620" x2="1485.0355339059" y2="616.46446609407" style="stroke:#0bf;stroke-width:2;"/>
   <line x1="1421" y1="437" x2="1424.5355339059" y2="440.53553390593" style="stroke:#0bf;stroke-width:2;"/>
   <line x1="1421" y1="437" x2="1424.5355339059" y2="433.46446609407" style="stroke:#0bf;stroke-width:2;"/>
   <line x1="713" y1="300" x2="703" y2="300" style="stroke:#cb0;stroke-width:1;"/>
   <line x1="643" y1="314" x2="633" y2="314" style="stroke:#cb0;stroke-width:1;"/>
   <line x1="703" y1="300" x2="643" y2="314" style="stroke:#cb0;stroke-width:1;"/>
   <line x1="705.5" y1="300" x2="709.03553390593" y2="303.53553390593" style="stroke:#cb0;stroke-width:2;"/>
   <line x1="705.5" y1="300" x2="709.03553390593" y2="296.46446609407" style="stroke:#cb0;stroke-width:2;"/>
   <line x1="638" y1="314" x2="641.53553390593" y2="317.53553390593" style="stroke:#cb0;stroke-width:2;"/>
   <line x1="638" y1="314" x2="641.53553390593" y2="310.46446609407" style="stroke:#cb0;stroke-width:2;"/>
   <line x1="980" y1="475" x2="970" y2="475" style="stroke:#b0b;stroke-width:1;"/>
   <line x1="914" y1="419" x2="904" y2="419" style="stroke:#b0b;stroke-width:1;"/>
   <line x1="970" y1="475" x2="914" y2="419" style="stroke:#b0b;stroke-width:1;"/>
   <line x1="972.5" y1="475" x2="976.03553390593" y2="478.53553390593" style="stroke:#b0b;stroke-width:2;"/>
   <line x1="972.5" y1="475" x2="976.03553390593" y2="471.46446609407" style="stroke:#b0b;stroke-width:2;"/>
   <line x1="909" y1="419" x2="912.53553390593" y2="422.53553390593" style="stroke:#b0b;stroke-width:2;"/>
   <line x1="909" y1="419" x2="912.53553390593" y2="415.46446609407" style="stroke:#b0b;stroke-width:2;"/>
   <line x1="706" y1="479" x2="696" y2="479" style="stroke:#0b0;stroke-width:1;"/>
   <line x1="643" y1="314" x2="633" y2="314" style="stroke:#0b0;stroke-width:1;"/>
   <line x1="696" y1="479" x2="643" y2="314" style="stroke:#0b0;stroke-width:1;"/>
   <line x1="698.5" y1="479" x2="702.03553390593" y2="482.53553390593" style="stroke:#0b0;stroke-width:2;"/>
   <line x1="698.5" y1="479" x2="702.03553390593" y2="475.46446609407" style="stroke:#0b0;stroke-width:2;"/>
   <line x1="638" y1="314" x2="641.53553390593" y2="317.53553390593" style="stroke:#0b0;stroke-width:2;"/>
   <line x1="638" y1="314" x2="641.53553390593" y2="310.46446609407" style="stroke:#0b0;stroke-width:2;"/>
   <line x1="425" y1="205" x2="415" y2="205" style="stroke:#0bf;stroke-width:1;"/>
   <line x1="334" y1="202" x2="324" y2="202" style="stroke:#0bf;stroke-width:1;"/>
   <line x1="415" y1="205" x2="334" y2="202" style="stroke:#0bf;stroke-width:1;"/>
   <line x1="417.5" y1="205" x2="421.03553390593" y2="208.53553390593" style="stroke:#0bf;stroke-width:2;"/>
   <line x1="417.5" y1="205" x2="421.03553390593" y2="201.46446609407" style="stroke:#0bf;stroke-width:2;"/>
   <line x1="329" y1="202" x2="332.53553390593" y2="205.53553390593" style="stroke:#0bf;stroke-width:2;"/>
   <line x1="329" y1="202" x2="332.53553390593" y2="198.46446609407" style="stroke:#0bf;stroke-width:2;"/>
   <rect width="176" height="20" x="1240" y="407" style="fill:#007;stroke:black;"/>
   <text width="176" height="20" x="1245" y="421" style="fill:#fff;" font-family="Arial" font-size="16px"> asignaturas</text>
   <rect width="176" height="20" x="1240" y="427" style="fill:#aea;stroke:black;"/>
   <text width="176" height="20" x="1245" y="441" style="fill:black;" font-family="Arial" font-size="16px">idAsignatura</text>
   <rect width="176" height="20" x="1240" y="447" style="fill:none;stroke:black;"/>
   <text width="176" height="20" x="1245" y="461" style="fill:black;" font-family="Arial" font-size="16px">nombreAsignatura</text>
   <rect width="176" height="20" x="1240" y="467" style="fill:none;stroke:black;"/>
   <text width="176" height="20" x="1245" y="481" style="fill:black;" font-family="Arial" font-size="16px">semestre</text>
   <rect width="176" height="20" x="1240" y="487" style="fill:none;stroke:black;"/>
   <text width="176" height="20" x="1245" y="501" style="fill:black;" font-family="Arial" font-size="16px">idPensum_Forean2asig</text>
   <rect width="205" height="20" x="428" y="284" style="fill:#007;stroke:black;"/>
   <text width="205" height="20" x="433" y="298" style="fill:#fff;" font-family="Arial" font-size="16px"> divisiones</text>
   <rect width="205" height="20" x="428" y="304" style="fill:#aea;stroke:black;"/>
   <text width="205" height="20" x="433" y="318" style="fill:black;" font-family="Arial" font-size="16px">idDivision</text>
   <rect width="205" height="20" x="428" y="324" style="fill:none;stroke:black;"/>
   <text width="205" height="20" x="433" y="338" style="fill:black;" font-family="Arial" font-size="16px">nombreDivision</text>
   <rect width="205" height="20" x="428" y="344" style="fill:none;stroke:black;"/>
   <text width="205" height="20" x="433" y="358" style="fill:black;" font-family="Arial" font-size="16px">numeroFacultades</text>
   <rect width="205" height="20" x="428" y="364" style="fill:none;stroke:black;"/>
   <text width="205" height="20" x="433" y="378" style="fill:black;" font-family="Arial" font-size="16px">decanoDivision</text>
   <rect width="205" height="20" x="428" y="384" style="fill:none;stroke:black;"/>
   <text width="205" height="20" x="433" y="398" style="fill:black;" font-family="Arial" font-size="16px">secretarioDivision</text>
   <rect width="205" height="20" x="428" y="404" style="fill:none;stroke:black;"/>
   <text width="205" height="20" x="433" y="418" style="fill:black;" font-family="Arial" font-size="16px">idSeccional_forean2division</text>
   <rect width="222" height="20" x="1489" y="530" style="fill:#007;stroke:black;"/>
   <text width="222" height="20" x="1494" y="544" style="fill:#fff;" font-family="Arial" font-size="16px"> estudiantes</text>
   <rect width="222" height="20" x="1489" y="550" style="fill:#aea;stroke:black;"/>
   <text width="222" height="20" x="1494" y="564" style="fill:black;" font-family="Arial" font-size="16px">idEstudiante</text>
   <rect width="222" height="20" x="1489" y="570" style="fill:none;stroke:black;"/>
   <text width="222" height="20" x="1494" y="584" style="fill:black;" font-family="Arial" font-size="16px">nombreEstudiante</text>
   <rect width="222" height="20" x="1489" y="590" style="fill:none;stroke:black;"/>
   <text width="222" height="20" x="1494" y="604" style="fill:black;" font-family="Arial" font-size="16px">semestre</text>
   <rect width="222" height="20" x="1489" y="610" style="fill:none;stroke:black;"/>
   <text width="222" height="20" x="1494" y="624" style="fill:black;" font-family="Arial" font-size="16px">idAsignatura_forean2est</text>
   <rect width="222" height="20" x="1489" y="630" style="fill:none;stroke:black;"/>
   <text width="222" height="20" x="1494" y="644" style="fill:black;" font-family="Arial" font-size="16px">nombreAsignatura_forean2est</text>
   <rect width="168" height="20" x="713" y="190" style="fill:#007;stroke:black;"/>
   <text width="168" height="20" x="718" y="204" style="fill:#fff;" font-family="Arial" font-size="16px"> facultades</text>
   <rect width="168" height="20" x="713" y="210" style="fill:#aea;stroke:black;"/>
   <text width="168" height="20" x="718" y="224" style="fill:black;" font-family="Arial" font-size="16px">idFacultad</text>
   <rect width="168" height="20" x="713" y="230" style="fill:none;stroke:black;"/>
   <text width="168" height="20" x="718" y="244" style="fill:black;" font-family="Arial" font-size="16px">nombreFacultad</text>
   <rect width="168" height="20" x="713" y="250" style="fill:none;stroke:black;"/>
   <text width="168" height="20" x="718" y="264" style="fill:black;" font-family="Arial" font-size="16px">decanoFacultad</text>
   <rect width="168" height="20" x="713" y="270" style="fill:none;stroke:black;"/>
   <text width="168" height="20" x="718" y="284" style="fill:black;" font-family="Arial" font-size="16px">secretarioFacultad</text>
   <rect width="168" height="20" x="713" y="290" style="fill:none;stroke:black;"/>
   <text width="168" height="20" x="718" y="304" style="fill:black;" font-family="Arial" font-size="16px">idDivision_forean2facu</text>
   <rect width="210" height="20" x="980" y="325" style="fill:#007;stroke:black;"/>
   <text width="210" height="20" x="985" y="339" style="fill:#fff;" font-family="Arial" font-size="16px"> pensum</text>
   <rect width="210" height="20" x="980" y="345" style="fill:#aea;stroke:black;"/>
   <text width="210" height="20" x="985" y="359" style="fill:black;" font-family="Arial" font-size="16px">idPensum</text>
   <rect width="210" height="20" x="980" y="365" style="fill:none;stroke:black;"/>
   <text width="210" height="20" x="985" y="379" style="fill:black;" font-family="Arial" font-size="16px">nombrePensum</text>
   <rect width="210" height="20" x="980" y="385" style="fill:none;stroke:black;"/>
   <text width="210" height="20" x="985" y="399" style="fill:black;" font-family="Arial" font-size="16px">creditos</text>
   <rect width="210" height="20" x="980" y="405" style="fill:none;stroke:black;"/>
   <text width="210" height="20" x="985" y="419" style="fill:black;" font-family="Arial" font-size="16px">duracion</text>
   <rect width="210" height="20" x="980" y="425" style="fill:none;stroke:black;"/>
   <text width="210" height="20" x="985" y="439" style="fill:black;" font-family="Arial" font-size="16px">fechaInicio</text>
   <rect width="210" height="20" x="980" y="445" style="fill:none;stroke:black;"/>
   <text width="210" height="20" x="985" y="459" style="fill:black;" font-family="Arial" font-size="16px">fechaFinalizacion</text>
   <rect width="210" height="20" x="980" y="465" style="fill:none;stroke:black;"/>
   <text width="210" height="20" x="985" y="479" style="fill:black;" font-family="Arial" font-size="16px">idPrograma_forean2pensum</text>
   <rect width="198" height="20" x="706" y="389" style="fill:#007;stroke:black;"/>
   <text width="198" height="20" x="711" y="403" style="fill:#fff;" font-family="Arial" font-size="16px"> programas</text>
   <rect width="198" height="20" x="706" y="409" style="fill:#aea;stroke:black;"/>
   <text width="198" height="20" x="711" y="423" style="fill:black;" font-family="Arial" font-size="16px">idPrograma</text>
   <rect width="198" height="20" x="706" y="429" style="fill:none;stroke:black;"/>
   <text width="198" height="20" x="711" y="443" style="fill:black;" font-family="Arial" font-size="16px">nombrePrograma</text>
   <rect width="198" height="20" x="706" y="449" style="fill:none;stroke:black;"/>
   <text width="198" height="20" x="711" y="463" style="fill:black;" font-family="Arial" font-size="16px">modalidad</text>
   <rect width="198" height="20" x="706" y="469" style="fill:none;stroke:black;"/>
   <text width="198" height="20" x="711" y="483" style="fill:black;" font-family="Arial" font-size="16px">idDivision_forean2program</text>
   <rect width="200" height="20" x="124" y="172" style="fill:#007;stroke:black;"/>
   <text width="200" height="20" x="129" y="186" style="fill:#fff;" font-family="Arial" font-size="16px"> seccionales</text>
   <rect width="200" height="20" x="124" y="192" style="fill:#aea;stroke:black;"/>
   <text width="200" height="20" x="129" y="206" style="fill:black;" font-family="Arial" font-size="16px">idSeccional</text>
   <rect width="200" height="20" x="124" y="212" style="fill:none;stroke:black;"/>
   <text width="200" height="20" x="129" y="226" style="fill:black;" font-family="Arial" font-size="16px">nombreSeccional</text>
   <rect width="200" height="20" x="124" y="232" style="fill:none;stroke:black;"/>
   <text width="200" height="20" x="129" y="246" style="fill:black;" font-family="Arial" font-size="16px">direccionSeccional</text>
   <rect width="200" height="20" x="124" y="252" style="fill:none;stroke:black;"/>
   <text width="200" height="20" x="129" y="266" style="fill:black;" font-family="Arial" font-size="16px">ciudadSeccional</text>
   <rect width="200" height="20" x="124" y="272" style="fill:none;stroke:black;"/>
   <text width="200" height="20" x="129" y="286" style="fill:black;" font-family="Arial" font-size="16px">departamentoDeSeccional</text>
   <rect width="200" height="20" x="124" y="292" style="fill:none;stroke:black;"/>
   <text width="200" height="20" x="129" y="306" style="fill:black;" font-family="Arial" font-size="16px">linkSeccional</text>
   <rect width="200" height="20" x="124" y="312" style="fill:none;stroke:black;"/>
   <text width="200" height="20" x="129" y="326" style="fill:black;" font-family="Arial" font-size="16px">rectorSeccional</text>
   <rect width="200" height="20" x="124" y="332" style="fill:none;stroke:black;"/>
   <text width="200" height="20" x="129" y="346" style="fill:black;" font-family="Arial" font-size="16px">fechaInicioSeccional</text>
   <rect width="186" height="20" x="425" y="95" style="fill:#007;stroke:black;"/>
   <text width="186" height="20" x="430" y="109" style="fill:#fff;" font-family="Arial" font-size="16px"> sedes</text>
   <rect width="186" height="20" x="425" y="115" style="fill:#aea;stroke:black;"/>
   <text width="186" height="20" x="430" y="129" style="fill:black;" font-family="Arial" font-size="16px">idSede</text>
   <rect width="186" height="20" x="425" y="135" style="fill:none;stroke:black;"/>
   <text width="186" height="20" x="430" y="149" style="fill:black;" font-family="Arial" font-size="16px">nombreSede</text>
   <rect width="186" height="20" x="425" y="155" style="fill:none;stroke:black;"/>
   <text width="186" height="20" x="430" y="169" style="fill:black;" font-family="Arial" font-size="16px">ciudad</text>
   <rect width="186" height="20" x="425" y="175" style="fill:none;stroke:black;"/>
   <text width="186" height="20" x="430" y="189" style="fill:black;" font-family="Arial" font-size="16px">direccion</text>
   <rect width="186" height="20" x="425" y="195" style="fill:none;stroke:black;"/>
   <text width="186" height="20" x="430" y="209" style="fill:black;" font-family="Arial" font-size="16px">idSeccional_forean2sede</text>
</svg>
